<svg version="1.1" id="Layer_1" xmlns="http://www.w3.org/2000/svg" xmlns:xlink="http://www.w3.org/1999/xlink" x="0px" y="0px" viewBox="0 0 512 512" style="enable-background:new 0 0 512 512;" xml:space="preserve">







<rect x="35.03" y="399.473" style="fill:#B4462F;" width="331.956" height="56.264"/><rect x="35.03" y="298.198" style="fill:#84B044;" width="331.956" height="56.264"/>
<path style="fill:#975D50;" d="M366.985,343.209h-33.758v67.516h33.758c18.567,0,33.758-15.191,33.758-33.758  C400.743,358.4,385.552,343.209,366.985,343.209z"/>
<path style="fill:#B1786B;" d="M333.227,343.209c18.567,0,33.758,15.191,33.758,33.758c0,18.567-15.191,33.758-33.758,33.758H35.029  c-18.567,0-33.758-15.191-33.758-33.758c0-18.567,15.191-33.758,33.758-33.758H333.227z"/>
<path style="fill:#FD7555;" d="M355.732,444.484L288.216,512h33.758c37.292,0,67.516-30.225,67.516-67.516H355.732z"/>
<polygon style="fill:#FDFA7B;" points="389.49,275.692 389.49,309.451 344.479,309.451 201.007,376.967 201.007,241.934 "/>

<polygon style="fill:#FEFDCA;" points="347.54,275.692 201.007,376.967 57.534,309.451 12.523,309.451 12.523,275.692   201.007,241.934 "/><path style="fill:#FD7555;" d="M288.216,129.407h-33.758l101.275,146.286h33.758v-50.637  C389.49,172.448,343.917,129.407,288.216,129.407z"/>
<g>
	<path style="fill:#FDA162;" d="M12.523,444.484h343.209c0,37.292-30.225,67.516-67.516,67.516H80.04   C42.748,512,12.523,481.775,12.523,444.484z"/>
	<path style="fill:#FDA162;" d="M355.732,225.055v50.637H12.523v-50.637c0-52.607,45.574-95.648,101.275-95.648h140.659   C310.158,129.407,355.732,172.448,355.732,225.055z"/>
</g>
<g>
	<circle style="fill:#FEFDCA;" cx="122.239" cy="185.67" r="8.44"/>
	<circle style="fill:#FEFDCA;" cx="161.623" cy="219.429" r="8.44"/>
	<circle style="fill:#FEFDCA;" cx="240.393" cy="219.429" r="8.44"/>
	<circle style="fill:#FEFDCA;" cx="201.008" cy="185.67" r="8.44"/>
	<circle style="fill:#FEFDCA;" cx="279.777" cy="185.67" r="8.44"/>
</g>
<g>
</g>
<g>
</g>
<g>
</g>
<g>
</g>
<g>
</g>
<g>
</g>
<g>
</g>
<g>
</g>
<g>
</g>
<g>
</g>
<g>
</g>
<g>
</g>
<g>
</g>
<g>
</g>
<g>
</g>
</svg>